<svg xmlns="http://www.w3.org/2000/svg" width="64" height="64" viewBox="0 0 64 64">
<g transform="scale(0.86)"><path d="M18 6 C8 20 10 44 22 54 L42 54 C54 44 56 20 46 6 C44 18 40 22 32 22 C24 22 20 18 18 6 Z" fill="none" stroke="#f7e097" stroke-width="5" stroke-linejoin="round"/><line x1="26" y1="24" x2="26" y2="52" stroke="#f7e097" stroke-width="2"/><line x1="32" y1="24" x2="32" y2="52" stroke="#f7e097" stroke-width="2"/><line x1="38" y1="24" x2="38" y2="52" stroke="#f7e097" stroke-width="2"/><rect x="18" y="52" width="28" height="7" rx="2" fill="#f7e097"/></g>
<circle cx="53" cy="52" r="11" fill="#1b2130" stroke="#f7e097" stroke-width="1.5"/>
<circle cx="53" cy="52" r="4" fill="#f5cd87"/><g stroke="#f5cd87" stroke-width="2" stroke-linecap="round"><line x1="53" y1="42" x2="53" y2="45"/><line x1="53" y1="59" x2="53" y2="62"/><line x1="43" y1="52" x2="46" y2="52"/><line x1="60" y1="52" x2="63" y2="52"/></g>
</svg>
